<svg id="svg" version="1.1" xmlns="http://www.w3.org/2000/svg" xmlns:xlink="http://www.w3.org/1999/xlink" width="400" height="166.66666666666669" viewBox="0, 0, 400,166.66666666666669"><g id="svgg"><path id="path0" d="M390.167 94.192 C 390.167 94.547,390.162 94.548,389.805 94.234 C 389.475 93.945,389.453 93.943,389.551 94.212 C 389.643 94.463,389.610 94.481,389.330 94.331 C 388.964 94.136,388.333 94.368,388.333 94.698 C 388.333 94.801,388.485 94.748,388.671 94.580 C 388.949 94.328,389.044 94.313,389.212 94.495 C 389.375 94.670,389.372 94.690,389.201 94.593 C 389.082 94.526,388.869 94.568,388.726 94.687 C 388.262 95.072,388.002 95.015,388.173 94.567 C 388.267 94.319,388.265 94.167,388.167 94.167 C 388.081 94.167,387.939 94.410,387.853 94.708 C 387.707 95.214,387.696 95.221,387.682 94.812 C 387.673 94.571,387.542 94.271,387.389 94.145 C 387.138 93.938,387.131 93.952,387.315 94.298 C 387.746 95.106,386.875 96.057,386.048 95.681 C 385.659 95.504,385.635 95.510,385.826 95.741 C 385.944 95.883,386.238 96.007,386.479 96.015 C 386.888 96.029,386.881 96.040,386.375 96.186 C 386.077 96.272,385.833 96.414,385.833 96.501 C 385.833 96.598,385.986 96.600,386.234 96.506 C 386.682 96.336,386.738 96.595,386.353 97.059 C 386.235 97.202,386.193 97.416,386.260 97.534 C 386.357 97.706,386.337 97.708,386.162 97.546 C 385.980 97.377,385.995 97.282,386.246 97.004 C 386.414 96.818,386.468 96.667,386.365 96.667 C 386.111 96.667,385.791 97.297,385.930 97.522 C 385.992 97.622,385.952 97.760,385.841 97.829 C 385.693 97.920,385.713 97.982,385.911 98.058 C 386.091 98.127,386.144 98.098,386.066 97.972 C 385.989 97.847,386.023 97.828,386.166 97.916 C 386.368 98.041,385.984 98.500,385.676 98.500 C 385.549 98.500,385.576 104.298,385.704 104.426 C 385.760 104.482,385.734 104.734,385.647 104.986 C 385.543 105.284,385.546 105.599,385.656 105.889 C 385.777 106.208,385.772 106.333,385.637 106.333 C 385.533 106.333,385.591 106.496,385.766 106.695 C 386.007 106.969,386.021 107.034,385.826 106.963 C 385.654 106.901,385.560 106.977,385.544 107.189 C 385.531 107.364,385.590 107.464,385.675 107.412 C 385.760 107.359,385.785 107.432,385.730 107.575 C 385.665 107.745,385.726 107.833,385.909 107.833 C 386.061 107.833,386.147 107.897,386.098 107.976 C 385.947 108.220,386.394 109.167,386.662 109.169 C 386.881 109.171,386.883 109.193,386.675 109.325 C 386.542 109.409,386.373 109.441,386.300 109.396 C 386.226 109.351,386.167 109.482,386.167 109.689 C 386.167 110.041,386.180 110.045,386.388 109.761 C 386.621 109.442,387.333 109.520,387.333 109.865 C 387.333 109.979,387.417 109.971,387.570 109.844 C 387.766 109.682,387.792 109.715,387.722 110.032 C 387.658 110.323,387.678 110.359,387.805 110.179 C 388.062 109.815,388.664 109.778,388.678 110.126 C 388.689 110.379,388.706 110.375,388.816 110.096 C 388.939 109.781,388.944 109.781,389.063 110.091 C 389.151 110.319,389.220 110.350,389.312 110.202 C 389.404 110.053,389.547 110.112,389.832 110.415 C 390.048 110.645,390.301 110.833,390.394 110.833 C 390.487 110.833,390.432 110.737,390.271 110.619 C 389.995 110.417,389.997 110.405,390.302 110.405 C 390.500 110.405,390.611 110.504,390.586 110.661 C 390.564 110.801,390.389 110.911,390.198 110.904 C 390.007 110.898,389.893 110.961,389.945 111.046 C 389.998 111.131,390.275 111.160,390.562 111.112 L 391.083 111.023 390.583 111.254 L 390.083 111.485 390.667 111.512 L 391.250 111.539 390.750 111.667 C 390.475 111.737,390.368 111.803,390.513 111.814 C 390.657 111.824,390.938 112.007,391.138 112.219 C 391.637 112.750,391.596 112.915,391.091 112.409 C 390.866 112.184,390.593 112.000,390.485 112.000 C 390.377 112.000,390.486 112.155,390.728 112.345 C 390.969 112.535,391.166 112.779,391.164 112.887 C 391.163 113.002,391.094 112.980,391.000 112.833 C 390.883 112.652,390.838 112.643,390.836 112.802 C 390.834 112.921,390.750 112.968,390.649 112.906 C 390.516 112.824,390.520 112.757,390.663 112.669 C 390.806 112.580,390.790 112.519,390.603 112.447 C 390.347 112.349,390.122 112.560,390.062 112.953 C 390.045 113.065,390.118 113.140,390.224 113.120 C 390.330 113.100,390.394 113.190,390.366 113.320 C 390.322 113.521,390.355 113.522,390.591 113.327 C 391.149 112.864,391.454 112.963,391.161 113.511 C 391.066 113.688,391.026 113.833,391.072 113.833 C 391.118 113.833,391.268 113.627,391.405 113.375 C 391.617 112.984,391.654 112.966,391.660 113.255 C 391.664 113.440,391.541 113.778,391.387 114.005 L 391.106 114.417 391.470 114.099 C 391.670 113.925,391.837 113.587,391.842 113.349 C 391.850 112.961,391.877 112.980,392.110 113.542 C 392.252 113.885,392.432 114.167,392.508 114.167 C 392.584 114.167,392.539 113.960,392.408 113.708 C 392.042 113.008,392.119 112.941,392.632 113.515 C 392.941 113.861,393.290 114.057,393.673 114.099 C 394.058 114.142,394.172 114.114,394.015 114.014 C 393.886 113.931,393.698 113.882,393.598 113.905 C 393.498 113.927,393.473 113.914,393.543 113.875 C 393.612 113.836,393.620 113.718,393.560 113.611 C 393.490 113.486,393.531 113.491,393.676 113.625 C 393.958 113.887,394.226 113.898,394.067 113.641 C 393.992 113.519,394.022 113.494,394.148 113.572 C 394.258 113.640,394.551 113.572,394.799 113.420 L 395.250 113.145 394.782 113.573 C 394.525 113.808,394.377 114.000,394.454 114.000 C 394.725 114.000,395.359 113.459,395.501 113.107 C 395.640 112.762,395.646 112.762,395.656 113.088 C 395.662 113.274,395.550 113.593,395.407 113.796 C 395.265 114.000,395.223 114.167,395.314 114.167 C 395.560 114.167,395.684 113.904,396.010 112.685 L 396.305 111.583 396.214 112.602 C 396.164 113.170,396.194 113.664,396.282 113.718 C 396.373 113.774,396.410 113.612,396.369 113.337 C 396.270 112.659,396.617 111.730,397.118 111.336 C 397.586 110.968,397.445 110.908,396.719 111.168 L 396.250 111.335 396.643 111.001 C 396.860 110.817,397.235 110.659,397.477 110.650 L 397.917 110.633 397.500 110.515 C 396.934 110.354,397.798 110.167,399.104 110.167 L 400.000 110.167 400.000 102.167 L 400.000 94.167 398.875 94.137 L 397.750 94.108 398.833 93.994 C 399.868 93.885,399.857 93.883,398.583 93.937 C 397.850 93.968,397.100 93.985,396.917 93.975 C 396.733 93.965,396.340 93.962,396.042 93.967 C 395.744 93.973,395.406 93.979,395.292 93.980 C 395.177 93.982,394.649 93.962,394.117 93.937 C 393.586 93.911,393.110 93.956,393.061 94.037 C 393.011 94.117,392.869 94.099,392.746 93.997 C 392.604 93.879,392.409 93.865,392.219 93.957 C 392.053 94.038,391.729 94.089,391.500 94.071 C 391.271 94.052,390.990 94.113,390.875 94.205 C 390.725 94.327,390.667 94.299,390.667 94.104 C 390.667 93.955,390.554 93.833,390.417 93.833 C 390.272 93.833,390.167 93.984,390.167 94.192 M387.001 94.533 C 387.235 94.815,387.207 95.045,386.958 94.890 C 386.441 94.566,386.233 94.774,386.556 95.292 C 386.712 95.541,386.482 95.568,386.199 95.334 C 386.089 95.243,386.103 95.287,386.230 95.434 C 386.409 95.639,386.536 95.659,386.794 95.521 C 387.260 95.272,387.398 94.820,387.090 94.553 C 386.950 94.432,386.909 94.422,387.001 94.533 M397.029 111.719 C 396.830 111.931,396.669 112.212,396.672 112.344 C 396.675 112.498,396.742 112.465,396.860 112.250 C 396.961 112.067,397.202 111.787,397.397 111.629 C 397.591 111.470,397.669 111.339,397.571 111.337 C 397.472 111.335,397.228 111.507,397.029 111.719 M393.024 113.500 C 393.113 113.500,393.132 113.406,393.066 113.292 C 393.001 113.177,393.011 113.142,393.089 113.213 C 393.271 113.379,393.342 113.833,393.185 113.833 C 393.000 113.833,392.665 113.452,392.680 113.258 C 392.687 113.162,392.731 113.177,392.777 113.292 C 392.823 113.406,392.934 113.500,393.024 113.500 " stroke="none" fill="#fcfcfc" fill-rule="evenodd"></path><path id="path1" d="" stroke="none" fill="#100fcfc" fill-rule="evenodd"></path><path id="path2" d="" stroke="none" fill="#100fcfc" fill-rule="evenodd"></path><path id="path3" d="" stroke="none" fill="#100fcfc" fill-rule="evenodd"></path><path id="path4" d="" stroke="none" fill="#100fcfc" fill-rule="evenodd"></path></g></svg>